<?xml version="1.0" encoding="utf-8"?>
<!-- Generator: Adobe Illustrator 17.1.0, SVG Export Plug-In . SVG Version: 6.00 Build 0)  -->
<!DOCTYPE svg PUBLIC "-//W3C//DTD SVG 1.1//EN" "http://www.w3.org/Graphics/SVG/1.1/DTD/svg11.dtd">
<svg version="1.1" id="Calque_1" xmlns="http://www.w3.org/2000/svg" xmlns:xlink="http://www.w3.org/1999/xlink" x="0px" y="0px"
	 viewBox="0.4 244.5 594 352.8" enable-background="new 0.4 244.5 594 352.8" xml:space="preserve">
<g id="tomato">
	<path fill="#E64C3B" d="M91.8,412.7c-17.4,6.6-25.4,25.2-26.2,41.1c-1.5,26.7,20.5,45,49.2,44.6c28.6-0.4,51.1-19.6,49.9-45.7
		c-0.6-16.5-12.3-36.2-27.2-40.2c-1.3-0.4-10.5-2.5-10.2-1.3"/>
	<path opacity="0.2" fill="#FFFFFF" enable-background="new    " d="M164.7,452.7c-0.6-16.5-9.9-31.6-22.9-40.6
		c1.5,0.5-14.7-0.1-14.5-0.7c3.8,0.5,8.4-0.7,11.6,2.2c13.8,12.8,16.9,16.1,20.8,35.7c3.7,18.1-5.3,43.5-40.2,47.9
		c-3.3,0.4-6.4,0.8-9.3,1.1c1.5,0.1,3,0.1,4.5,0.1C143.4,498,165.8,478.9,164.7,452.7z"/>
	<path opacity="0.15" fill="#FFFFFF" enable-background="new    " d="M151.6,458.2c-1.4,7.7-7.9,12.8-14.5,11.4
		c-6.6-1.3-10.5-8.7-8.9-16.4c1.6-7.7,8.1-12.9,14.4-11.5C149,443.1,153,450.5,151.6,458.2z"/>
	<path fill="#22AD5F" d="M96.9,414.8c4.3,3.1-11.8,6.2-15,11.4c14.2,1.2,27.3-2.1,25.5-4.1c1.7,2.1,3,1.3,1.3,0.5
		c1.3,3-2.4,0.9,2.3,8.1c6.8-7,11-4.9,12.7-6.5c-1.7,1.6-0.9,0.5,1.5-0.9c-1.7,2.1,11.8,6.5,23.7,6.1c-5.5-6.4-16.4-9.4-11.9-12.5
		c-4.5,3.1,11.3,7.7,21,3.1c-7.5,0-6.5,1.3-18.4-9.1c-13.5-0.9,0,11.3,18.2,3.7c-18.2-2.7-22-5.9-35.4-6.4
		c-6.3-0.3-12.8-1.2-19.4,0.1c-9,1.8-18.4,2.6-29.3,4.9C81,419.7,101.1,417.9,96.9,414.8z"/>
	<path fill="#5BA248" d="M75.7,407.7"/>
	<path opacity="0.2" fill="#FFFFFF" enable-background="new    " d="M146,416.9c1.9,0.1,4-0.1,6.2-0.5c1.8-0.4,3.7-1,5.5-1.8
		c-0.3-0.1-0.6-0.1-0.9-0.1c-14-2.1-19.2-4.5-27.6-5.7c-1.9-0.1-3.9-0.2-6.3-0.2c-0.5,0-0.9,0-1.4,0c5.3,0.9,15,2.7,14.6,3.2
		c-1.9,2.7-0.9,3.3-4.5,3.1c-3.7-0.1,2.7,11.4,3.8,12.1c0.2,0.1,0.5,0.6,1,1.3c3.5,0.7,7.3,1.1,11.1,1.1c0,0,0,0,0.1,0
		c0.4,0,0.7,0,1.1,0c-5.1-5.9-15.7-9.2-12.3-12.2c0.1-0.1,0.3-0.2,0.5-0.3c-0.1,0.1-0.1,0.1-0.2,0.2c0.1,0,0.1-0.1,0.1-0.1
		c-0.1,0.1-0.2,0.1-0.3,0.2c-0.5,0.5-0.5,1.1-0.1,1.7c2.1,2.5,14,4.7,21.6,1.1C151.9,421.3,150.2,420.7,146,416.9z"/>
	<g>
		<path fill="#22AD5F" d="M111.5,410.7c0.7-8.1,0.3-8.3,2.1-12.5c1.7-4,6-12.7,10.3-13.2c0.8-0.1,2.5,0.7,2.5,1.5
			c0,2.1-11.3,15.8-10.2,24.2L111.5,410.7z"/>
	</g>
	<path opacity="0.2" fill="#FFFFFF" enable-background="new    " d="M126.3,384.8c0,0-12.7,17.8-10.1,23.7l10.1-6.1V384.8z"/>
</g>
<g id="poulet">
	
		<rect x="108" y="329.9" transform="matrix(0.1485 0.9889 -0.9889 0.1485 486.4106 124.6712)" fill="#FFE4A9" width="125.6" height="29.7"/>
	<path fill="#B56828" d="M170.9,345.2c31.6-4.7,61.9,23.2,67.8,62.4c5.9,39.2-14.9,74.8-46.4,79.6c-31.6,4.7-61.9-23.2-67.8-62.4
		C118.6,385.5,139.4,349.9,170.9,345.2z"/>
	<path fill="#FFE4A9" d="M145.6,272.1c7.9-1.2,15.1,4.2,16.3,12.1c1.2,7.9-4.2,15.2-12.1,16.3c-7.9,1.2-15.2-4.2-16.3-12.1
		C132.3,280.5,137.7,273.2,145.6,272.1z"/>
	<path fill="#FFE4A9" d="M174.1,266.3c7.9-1.2,15.1,4.2,16.3,12.1c1.2,7.9-4.2,15.2-12.1,16.3c-7.9,1.2-15.2-4.2-16.3-12.1
		C160.8,274.7,166.2,267.5,174.1,266.3z"/>
	<path opacity="0.2" fill="#FFFFFF" enable-background="new    " d="M232.8,405.8c2.5,7.7,4.7,15.5,6.5,23.4
		c0.7-6.9,0.5-14.2-0.6-21.6c-5.9-39.2-36.2-67.1-67.8-62.4c-25,3.7-43.3,27-46.8,55.9c16-23.5,35.3-41.8,66.7-36.8
		C215.1,368.3,225.4,383.5,232.8,405.8z"/>
</g>
<g id="feuilles">
	<path fill="#4EB96F" d="M324.2,339.6c-2.2-8.1-19.6-10-25-10.4l-2.1-0.1l-0.9,1.9c-3.5,7.5-23.8,50.7-39.1,87.1
		c0.7-4.2,1.4-8.5,2.1-12.8c10.2-57.7,19-69.8,23.2-71.8l-1.9-4.1c-0.8,0.4-1.6,0.9-2.3,1.6l-29-3.5c0-0.2,0-0.3,0-0.3l-4.5,0.1
		c0,0.9,2.9,88.9-17,138l-0.9,2.3l12.5,3.7l0,0l16.4,4.7l1-2.6c11.2-30,43.8-110.3,60.1-121.7C319.1,350.1,325.8,345.4,324.2,339.6z
		"/>
	<g>
		<path fill="#22AD5F" d="M366.2,343.4c0,1.3,2,3.3,1.3,4.7c-4,6.7-13.3,2-19.3,3.3c1.3,7.3,3.3,15.3,0,22c-1.3,1.3-4,2-6,0.7
			c-0.7,2-0.7,3.3-2,4.7c-2,1.3-4.7-1.3-6.7-2c-3.3-2.7-6.7-5.3-10.7-7.3c-2.7,6.7-4.7,15.3-11.3,18.6c-2,0.7-4-0.7-5.3-1.3
			c-1.3,0-2,2.7-3.3,2.7c-6-2.7-8-10-12-15.3c-6,4.7-11.3,12-19.3,12c-1.3,0-3.3-0.7-3.3-3.3c-1.3,0.7-2,1.3-3.3,1.3
			c-5.3-0.7-5.3-6-6-10c0-2.7,0-5.3-1.3-8c-3.3,0-6.7,1.3-10,2c-4,0.7-7.3,1.3-11.3,0.7c-2-0.7-3.3-2.7-2.7-4.7c-1.3,0-2.7,0-4-0.7
			s-2-1.3-2.7-2.7c-0.7-6,2-11.3,4-16.6c-7.3-2-14.6-3.3-20.6-8c-0.7-0.7-2-2-1.3-3.3c0.7-0.7,1.3-1.3,1.3-2c-0.7-0.7-1.3-0.7-2-1.3
			c-6.7-8,5.3-13.3,10.7-16.6c-5.3-5.3-11.3-11.3-13.3-19.3c0-1.3,1.3-2,2-2.7s1.3-0.7,2-0.7c-1.3-2-1.3-4.7,0-6c4-4.7,12-1.3,18-2
			c-0.7-8-4.7-17.3,2-23.3c0.7-0.7,2.7-0.7,4,0.7c0-1.3,0.7-2,1.3-3.3c0.7-0.7,1.3-1.3,2.7-1.3c5.3,2,10,6.7,15.3,9.3
			c2.7-6.7,4.7-15.3,11.3-18.6c2-0.7,4,0,5.3,1.3c2-3.3,6.7-2.7,8,0.7c0.7,1.3,0.7,2,2,3.3c0.7,0.7,0,1.3,0.7,2c1.3,1.3,2,2,2.7,3.3
			c0.7,1.3,1.3,3.3,2,2.7c6.7-3.3,11.3-10.7,19.3-11.3c1.3,0,3.3,0.7,3.3,3.3c4-2.7,8,0.7,8.7,4.7s0.7,8,2,12
			c7.3-0.7,14-3.3,21.3-2.7c1.3,0,2,1.3,2.7,2c0,0.7,0,2,0,2.7c0.7,0,1.3,0,2,0c9.3,2.7,3.3,14,0.7,20c7.3,2.7,16,3.3,22,9.3
			c0.7,1.3-1.3,2.7-1.3,4c0,0.7,1.3,0.7,2,1.3c4,3.3,2,9.3-2,11.3c-3.3,1.3-5.3,4-8,5.3c4.7,6,11.3,11.3,12.7,19.3
			c0,1.3-1.3,2-2,3.3C367.6,343.4,366.9,343.4,366.2,343.4L366.2,343.4z"/>
	</g>
	<g>
		<path fill="#22AD5F" d="M366.2,343.4c0,1.3,2,3.3,1.3,4.7c-4,6.7-13.3,2-19.3,3.3c1.3,7.3,3.3,15.3,0,22c-1.3,1.3-4,2-6,0.7
			c-0.7,2-0.7,3.3-2,4.7c-2,1.3-4.7-1.3-6.7-2c-3.3-2.7-6.7-5.3-10.7-7.3c-2.7,6.7-4.7,15.3-11.3,18.6c-2,0.7-4-0.7-5.3-1.3
			c-1.3,0-2,2.7-3.3,2.7c-6-2.7-8-10-12-15.3c-6,4.7-11.3,12-19.3,12c-1.3,0-3.3-0.7-3.3-3.3c-1.3,0.7-2,1.3-3.3,1.3
			c-5.3-0.7-5.3-6-6-10c0-2.7,0-5.3-1.3-8c-3.3,0-6.7,1.3-10,2c-4,0.7-7.3,1.3-11.3,0.7c-2-0.7-3.3-2.7-2.7-4.7c-1.3,0-2.7,0-4-0.7
			s-2-1.3-2.7-2.7c-0.7-6,2-11.3,4-16.6c-7.3-2-14.6-3.3-20.6-8c-0.7-0.7-2-2-1.3-3.3c0.7-0.7,1.3-1.3,1.3-2c-0.7-0.7-1.3-0.7-2-1.3
			c-6.7-8,5.3-13.3,10.7-16.6c-5.3-5.3-11.3-11.3-13.3-19.3c0-1.3,1.3-2,2-2.7s1.3-0.7,2-0.7c-1.3-2-1.3-4.7,0-6c4-4.7,12-1.3,18-2
			c-0.7-8-4.7-17.3,2-23.3c0.7-0.7,2.7-0.7,4,0.7c0-1.3,0.7-2,1.3-3.3c0.7-0.7,1.3-1.3,2.7-1.3c5.3,2,10,6.7,15.3,9.3
			c2.7-6.7,4.7-15.3,11.3-18.6c2-0.7,4,0,5.3,1.3c2-3.3,6.7-2.7,8,0.7c0.7,1.3,0.7,2,2,3.3c0.7,0.7,0,1.3,0.7,2c1.3,1.3,2,2,2.7,3.3
			c0.7,1.3,1.3,3.3,2,2.7c6.7-3.3,11.3-10.7,19.3-11.3c1.3,0,3.3,0.7,3.3,3.3c4-2.7,8,0.7,8.7,4.7s0.7,8,2,12
			c7.3-0.7,14-3.3,21.3-2.7c1.3,0,2,1.3,2.7,2c0,0.7,0,2,0,2.7c0.7,0,1.3,0,2,0c9.3,2.7,3.3,14,0.7,20c7.3,2.7,16,3.3,22,9.3
			c0.7,1.3-1.3,2.7-1.3,4c0,0.7,1.3,0.7,2,1.3c4,3.3,2,9.3-2,11.3c-3.3,1.3-5.3,4-8,5.3c4.7,6,11.3,11.3,12.7,19.3
			c0,1.3-1.3,2-2,3.3C367.6,343.4,366.9,343.4,366.2,343.4L366.2,343.4z"/>
	</g>
	<path fill="#22AD5F" d="M366.4,342.9c0,1.5,1.5,3,1.5,4.5c-4.5,7.5-13.4,4.5-19.4,4.5c1.5,7.5,4.5,17.9-1.5,20.8
		c-3,1.5-4.5,4.5-7.5,4.5c-6,1.5-10.5-6-16.4-7.5c-1.5,7.5-4.5,13.4-10.5,17.9c-1.5,1.5-4.5-1.5-6-1.5c-1.5,0-1.5,3-3,3
		c-7.5,0-8.9-10.5-13.4-14.9c-6,6-11.9,13.4-20.8,11.9l-1.5-3c-11.9,1.5-7.5-11.9-10.5-17.9c-7.5,3-14.9,3-22.4,3c-4.5,0,3-6-6-4.5
		c-4.5-6-1.5-13.4,1.5-19.4c-7.5-3-17.9-3-22.4-11.9l1.5-1.5c-1.5-1.5-4.5-3-4.5-6c1.5-6,8.9-8.9,13.4-11.9
		c-3-4.5-7.5-7.5-10.5-11.9c-1.5-4.5-6-8.9,1.5-11.9c-1.5-1.5-3-4.5-1.5-6c6-3,13.4-1.5,19.4-1.5c-3-7.5-4.5-17.9,1.5-20.8
		c3-1.5,4.5-3,7.5-6c0,0,1.5,0,3,0c6,1.5,7.5,10.5,13.4,7.5c1.5,0,1.5-4.5,3-7.5c1.5-1.5,3-4.5,4.5-7.5c1.5-3,4.5-1.5,8.9,0
		c1.5,0,1.5-3,3-3c7.5,0,7.5,10.5,11.9,14.9c7.5-4.5,11.9-11.9,20.8-11.9l1.5,3c11.9-1.5,8.9,11.9,11.9,17.9c7.5-3,16.4-6,23.8-1.5
		v2.9c1.5,0,3,0,4.5,0c4.5,6-1.5,11.9-1.5,19.4c7.5,3,14.9,3,20.8,8.9c1.5,1.5-1.5,3-1.5,4.5c1.5,1.5,3,1.5,4.5,3
		c3,7.5-6,10.5-11.9,14.9c3,7.5,14.9,13.4,11.9,22.4C369.4,342.9,368,342.9,366.4,342.9L366.4,342.9z"/>
	<g>
		<path opacity="0.2" fill="#FFFFFF" enable-background="new    " d="M293.3,370.9C293.3,370.9,293.4,370.9,293.3,370.9
			C293.4,370.9,293.3,370.9,293.3,370.9z"/>
		<path opacity="0.2" fill="#FFFFFF" enable-background="new    " d="M292.4,371.9L292.4,371.9L292.4,371.9z"/>
		<path opacity="0.2" fill="#FFFFFF" enable-background="new    " d="M291.4,373L291.4,373L291.4,373z"/>
		<path opacity="0.2" fill="#FFFFFF" enable-background="new    " d="M295.8,383c-16.8,7.2-37.5,67.5-42.7,92l2.8,0.8l1-2.6
			C264.2,453.6,280.7,412.3,295.8,383"/>
		<path opacity="0.2" fill="#FFFFFF" enable-background="new    " d="M323.2,369.7c6,1.5,10.5,8.9,16.4,7.5c3,0,4.5-3,7.5-4.5
			c6-3,3-13.4,1.5-20.8c6,0,14.9,3,19.4-4.5c0-1.5-1.5-3-1.5-4.5c1.5,0,3,0,3,0c3-8.9-8.9-14.9-11.9-22.4c6-4.5,14.9-7.5,11.9-14.9
			c-1.5-1.5-3-1.5-4.5-3c0-1.5,3-3,1.5-4.5c-6-6-13.4-6-20.8-8.9c0-7.5,6-13.4,1.5-19.4c-1.5,0-3,0-4.5,0v-3
			c-4.7-2.8-10-2.7-15.2-1.4c11.9,16,40.8,62.7,5.6,96.9c0,0-15.5,13.5-37.2,20.6l4.7,11.9l26.1-6.4L323.2,369.7z"/>
	</g>
</g>
<g id="broche1">
	<rect x="383.8" y="247.6" fill="#35495E" width="4.4" height="224.6"/>
	<path fill="#E64C3B" d="M369.6,299.4c0,9.4,7.7,17,17,17l0,0c9.4,0,17-7.7,17-17l0,0c0-9.4-7.7-17-17-17l0,0
		C377.3,282.4,369.6,290,369.6,299.4L369.6,299.4z"/>
	<path fill="#4EB96F" d="M371.2,319.2c0,1.6,1.3,2.9,2.9,2.9h24c1.6,0,2.9-1.3,2.9-2.9l0,0c0-1.6-1.3-2.9-2.9-2.9h-24
		C372.5,316.3,371.2,317.6,371.2,319.2L371.2,319.2z"/>
	<path fill="#ECEFF0" d="M371.2,322.1c0,8.2,6.7,14.8,14.8,14.8c8.2,0,14.8-6.7,14.8-14.8H371.2z"/>
	<path fill="#F19B1F" d="M371.2,339.8c0,1.6,1.3,2.9,2.9,2.9h24c1.6,0,2.9-1.3,2.9-2.9l0,0c0-1.6-1.3-2.9-2.9-2.9h-24
		C372.4,337,371.2,338.2,371.2,339.8L371.2,339.8z"/>
	<path fill="#E64C3B" d="M369.1,359.8c0,9.4,7.7,17,17,17l0,0c9.4,0,17-7.7,17-17l0,0c0-9.4-7.7-17-17-17l0,0
		C376.7,342.8,369.1,350.4,369.1,359.8L369.1,359.8z"/>
	<path fill="#4EB96F" d="M371.2,379.8c0,1.6,1.3,2.9,2.9,2.9h24c1.6,0,2.9-1.3,2.9-2.9l0,0c0-1.6-1.3-2.9-2.9-2.9h-24
		C372.4,376.9,371.2,378.2,371.2,379.8L371.2,379.8z"/>
	<path fill="#ECEFF0" d="M371,382.7c0,8.2,6.7,14.8,14.8,14.8c8.2,0,14.8-6.7,14.8-14.8H371z"/>
	<path fill="#F19B1F" d="M371,400.4c0,1.6,1.3,2.9,2.9,2.9h24c1.6,0,2.9-1.3,2.9-2.9l0,0c0-1.6-1.3-2.9-2.9-2.9h-24
		C372.3,397.5,371,398.8,371,400.4L371,400.4z"/>
	<path fill="#E64C3B" d="M369,420.3c0,9.4,7.7,17,17,17l0,0c9.4,0,17-7.7,17-17l0,0c0-9.4-7.7-17-17-17l0,0
		C376.6,403.3,369,411,369,420.3L369,420.3z"/>
	<path opacity="0.2" fill="#FFFFFF" enable-background="new    " d="M388.2,282.6c0,0,5.2,3.5,7.3,8.5s1.7,10.4,0,13.4
		c-1.7,3-6,13.3-5.3,14.7c0.7,1.4,3.3,4.4,3.3,8.1s-1.2,7.5-0.7,12.6c0.5,5.1,1.1,8.9,2.4,11.5c1.7,3.6,4.9,7.4,1.5,15.7
		c-2.7,6.5-2.3,7.9-1.3,19.2c0.7,8.5-3.2,14.7-3.7,20.1c-0.2,1.8,2.7,7.5,3.6,9.2c3.6,6.7-0.4,15.9-7,21.4l15.4,7.3l4.5-166.2
		L388.2,282.6z"/>
</g>
<g id="broche2">
	
		<rect x="426.6" y="267.6" transform="matrix(-0.9894 0.1451 -0.1451 -0.9894 901.9035 625.5607)" fill="#35495E" width="3.1" height="156.1"/>
	<path fill="#E64C3B" d="M410.8,305.8c0.9,6.5,7,11,13.5,10l0,0c6.5-0.9,11-7,10-13.5l0,0c-0.9-6.5-7-11-13.5-10l0,0
		C414.3,293.2,409.8,299.3,410.8,305.8L410.8,305.8z"/>
	<path fill="#F19B1F" d="M413.8,319.2c0.1,1.1,1.2,1.9,2.3,1.7l16.4-2.4c1.1-0.1,1.9-1.2,1.7-2.3l0,0c-0.1-1.1-1.2-1.9-2.3-1.7
		l-16.4,2.4C414.4,317.1,413.7,318.1,413.8,319.2L413.8,319.2z"/>
	<path fill="#ECEFF0" d="M414.1,321.2c0.8,5.7,6.1,9.5,11.7,8.7c5.7-0.8,9.5-6.1,8.7-11.7L414.1,321.2z"/>
	<path fill="#4EB96F" d="M415.9,333.4c0.1,1.1,1.2,1.9,2.3,1.7l16.4-2.4c1.1-0.1,1.9-1.2,1.7-2.3l0,0c-0.1-1.1-1.2-1.9-2.3-1.7
		l-16.4,2.4C416.5,331.3,415.7,332.3,415.9,333.4L415.9,333.4z"/>
	<path fill="#E64C3B" d="M416.4,347.3c0.9,6.5,7,11,13.5,10l0,0c6.5-0.9,11-7,10-13.5l0,0c-0.9-6.5-7-11-13.5-10l0,0
		C420,334.8,415.5,340.8,416.4,347.3L416.4,347.3z"/>
	<path fill="#F19B1F" d="M419.9,360.8c0.1,1.1,1.2,1.9,2.3,1.7l16.4-2.4c1.1-0.1,1.9-1.2,1.7-2.3l0,0c-0.1-1.1-1.2-1.9-2.3-1.7
		l-16.4,2.4C420.5,358.8,419.8,359.8,419.9,360.8L419.9,360.8z"/>
	<path fill="#ECEFF0" d="M420.1,362.8c0.8,5.7,6.1,9.5,11.7,8.7c5.7-0.8,9.5-6.1,8.7-11.7L420.1,362.8z"/>
	<path fill="#F19B1F" d="M421.9,375.1c0.1,1.1,1.2,1.9,2.3,1.7l16.4-2.4c1.1-0.1,1.9-1.2,1.7-2.3l0,0c-0.1-1.1-1.2-1.9-2.3-1.7
		l-16.4,2.4C422.5,372.9,421.8,373.9,421.9,375.1L421.9,375.1z"/>
	<path fill="#E64C3B" d="M422.5,389c0.9,6.5,7,11,13.5,10l0,0c6.5-0.9,11-7,10-13.5l0,0c-0.9-6.5-7-11-13.5-10l0,0
		C426,376.5,421.6,382.5,422.5,389L422.5,389z"/>
	<path opacity="0.2" fill="#FFFFFF" enable-background="new    " d="M421.8,292.3c0,0,3.9,1.9,5.9,5.1c1.9,3.3,2.2,7,1.3,9.2
		c-0.9,2.3-2.8,9.8-2.2,10.7c0.6,0.9,2.7,2.7,3.1,5.2c0.4,2.5-0.1,5.3,0.8,8.7c0.9,3.5,1.7,5.9,2.8,7.7c1.5,2.3,4.1,4.6,2.6,10.7
		c-1.2,4.7-0.8,5.6,1,13.3c1.4,5.8-0.7,10.5-0.5,14.2c0.1,1.3,2.7,4.9,3.4,5.9c3.1,4.3,1.3,11-2.6,15.4l11.3,3.5l-13.7-114.7
		L421.8,292.3z"/>
</g>
<g id="pastek">
	<path fill="#22AD5F" d="M141.6,428.5c17.1,80,102.5,144.8,187,126.7c84.4-18,135.8-112.1,118.7-192.1L141.6,428.5z"/>
	<path fill="#FFFFFF" d="M433.9,366.1c17,79.4-33.6,155.7-110.6,172.1c-77,16.5-151.3-33.1-168.3-112.5L433.9,366.1z"/>
	<path fill="#E64C3B" d="M169.8,422.4c15.9,74.2,84.6,122.5,153.3,107.8c68.8-14.7,111.7-86.8,95.8-161.1L169.8,422.4z"/>
	<g>
		
			<ellipse transform="matrix(-0.8395 -0.5434 0.5434 -0.8395 137.4302 923.7742)" fill="#35495E" cx="205.2" cy="441.6" rx="3.5" ry="4.1"/>
		<path fill="#35495E" d="M249.4,490.4c1.6,1.1,1.9,3.5,0.7,5.3c-1.2,1.9-3.5,2.6-5.1,1.5c-1.6-1.1-1.9-3.5-0.7-5.3
			C245.5,490.1,247.8,489.3,249.4,490.4z"/>
		
			<ellipse transform="matrix(-0.8394 -0.5435 0.5435 -0.8394 211.2179 922.2703)" fill="#35495E" cx="241.9" cy="429.9" rx="3.2" ry="4.1"/>
		<path fill="#35495E" d="M248.3,457c2.9,1.9,3.6,5.7,1.7,8.7c-1.9,3-5.8,3.9-8.7,2.1c-2.9-1.9-3.6-5.7-1.7-8.7
			C241.6,456.1,245.4,455.2,248.3,457z"/>
		
			<ellipse transform="matrix(-0.8394 -0.5435 0.5435 -0.8394 339.8156 982.321)" fill="#35495E" cx="315" cy="441" rx="4.8" ry="5.3"/>
		
			<ellipse transform="matrix(-0.8394 -0.5435 0.5435 -0.8394 335.7848 1073.7003)" fill="#35495E" cx="326.5" cy="487.2" rx="8.5" ry="8.5"/>
		<path fill="#35495E" d="M280.9,460.1c1.1,0.7,1.3,2.5,0.3,4c-0.9,1.5-2.7,2.1-3.8,1.4c-1.1-0.7-1.3-2.5-0.3-4
			C278.1,460,279.8,459.4,280.9,460.1z"/>
		<circle fill="#35495E" cx="341" cy="399.1" r="5.1"/>
		<circle fill="#35495E" cx="366.8" cy="446.2" r="3"/>
		<path fill="#35495E" d="M351,424.9c1.5,0.9,1.9,2.9,0.9,4.5c-0.9,1.5-2.9,1.9-4.5,0.9c-1.5-0.9-1.9-2.9-0.9-4.5
			C347.5,424.3,349.5,423.9,351,424.9z"/>
		<circle fill="#35495E" cx="379.5" cy="475.9" r="4.1"/>
		<path fill="#35495E" d="M394.1,401.3c2,1.3,2.6,4,1.3,6.1c-1.3,2-4,2.6-6.1,1.3c-2-1.3-2.6-4-1.3-6.1
			C389.3,400.6,392.1,400,394.1,401.3z"/>
		<path fill="#35495E" d="M290.1,411.2c1.9,1.2,2.4,3.7,1.2,5.6s-3.7,2.4-5.6,1.2s-2.4-3.7-1.2-5.6
			C285.7,410.4,288.3,409.9,290.1,411.2z"/>
	</g>
	<path opacity="0.2" fill="#FFFFFF" enable-background="new    " d="M403.1,372.5c1.5,12.1,2.3,24.2,2.3,36.3
		c0,24.4-9.6,32.6-21.9,52.3c-23,36.8-48.1,68.1-96,70.4c-2.7,0.1-5.7,0-9.1-0.3c14.4,2.4,29.5,2.2,44.5-1
		c68.8-14.7,111.7-86.8,95.8-161.1L403.1,372.5z"/>
</g>
<g id="carotte">
	<path fill="#E57E25" d="M487.9,495.3c3.6-0.7-0.1-94.3-0.1-94.3c-1.7-9.6-10.8-16-20.4-14.2c-9.6,1.7-16,10.8-14.2,20.4"/>
	<path fill="#E57E25" d="M453.3,407.2c0,0,30.8,88.9,34.8,88.2"/>
	<g>
		<path fill="#22AD5F" d="M462.1,347.8C458.5,348.4,458.5,348.4,462.1,347.8c0-0.1,8.2-1.5,8.2,3.8c0,0.7-1.4,2.1-0.7,2.2
			c3.2,0.5,3.4,0.5,3.4,0.5c3.7-0.1,4.1,1.2,0.9,3.1c0,0,0,0,0.1,2.8c0.1,1.9,2.7,2.6,4.1,3.5c0.7,0.5,2.3,1.1,2.3,2.1
			c0.2,1.9,0.2,1.9,0.2,1.9c-3.1,1.1-5,2.9-4.2,3.9c0,0,0,0,0.7,1.1c1,1.7,1,1.7,1,1.7c2.2,0.4,4.1,2.7,4.3,5.1c0,0,0,0,2.1,2.1
			c2.4,2.5-10.3,4.1-10.1,5.1c0.2,0.6,2.4,0,2.7,0.5c0.5,0.8-1,2.1-1.5,2.5c-3,2.8-5.1,3.6-5.1,3.6c-3.4,1.3-7.1,1.3-8.1-0.2
			c-1.1-1.5-1.8-3.4-0.8-3.8c0,0,0,0-0.2-0.3c-0.4-0.5-3.1,0-3.7,0.1c-2.7,0.1-2.7,0.1-2.7,0.1c-2.9-0.2-2.9-1.6,0-3.1
			s2.6-8-0.6-8.7c-3.2-0.7-10.5-3.4-8.9-4.9c0,0,0,0,1.2-0.8c1.1-0.7,4.1-2.1,4.3-3.6c0.1-0.6-0.8-0.9-1.1-1.4
			c-0.5-0.9-0.5-1.9-0.2-2.7c1.1-3,1.4-3.1,1.4-3.1c3.3-1.6,4.7-3,3.1-3.1c0,0,0,0-1.4-0.3c-0.5-0.1-0.9-0.3-0.2-0.6
			c3.4-1.3,4.3-1.5,4.3-1.5c3.6-0.8,4.7-3.9,2.5-6.8c0,0-0.3-0.3-3.9,0.2C469.8,346.6,462.1,347.8,462.1,347.8z"/>
	</g>
	<g>
		<path fill="#22AD5F" d="M462.1,347.8C458.5,348.4,458.5,348.4,462.1,347.8c0-0.1,8.2-1.5,8.2,3.8c0,0.7-1.4,2.1-0.7,2.2
			c3.2,0.5,3.4,0.5,3.4,0.5c3.7-0.1,4.1,1.2,0.9,3.1c0,0,0,0,0.1,2.8c0.1,1.9,2.7,2.6,4.1,3.5c0.7,0.5,2.3,1.1,2.3,2.1
			c0.2,1.9,0.2,1.9,0.2,1.9c-3.1,1.1-5,2.9-4.2,3.9c0,0,0,0,0.7,1.1c1,1.7,1,1.7,1,1.7c2.2,0.4,4.1,2.7,4.3,5.1c0,0,0,0,2.1,2.1
			c2.4,2.5-10.3,4.1-10.1,5.1c0.2,0.6,2.4,0,2.7,0.5c0.5,0.8-1,2.1-1.5,2.5c-3,2.8-5.1,3.6-5.1,3.6c-3.4,1.3-7.1,1.3-8.1-0.2
			c-1.1-1.5-1.8-3.4-0.8-3.8c0,0,0,0-0.2-0.3c-0.4-0.5-3.1,0-3.7,0.1c-2.7,0.1-2.7,0.1-2.7,0.1c-2.9-0.2-2.9-1.6,0-3.1
			s2.6-8-0.6-8.7c-3.2-0.7-10.5-3.4-8.9-4.9c0,0,0,0,1.2-0.8c1.1-0.7,4.1-2.1,4.3-3.6c0.1-0.6-0.8-0.9-1.1-1.4
			c-0.5-0.9-0.5-1.9-0.2-2.7c1.1-3,1.4-3.1,1.4-3.1c3.3-1.6,4.7-3,3.1-3.1c0,0,0,0-1.4-0.3c-0.5-0.1-0.9-0.3-0.2-0.6
			c3.4-1.3,4.3-1.5,4.3-1.5c3.6-0.8,4.7-3.9,2.5-6.8c0,0-0.3-0.3-3.9,0.2C469.8,346.6,462.1,347.8,462.1,347.8z"/>
	</g>
	<path fill="#22AD5F" d="M463.6,347.6C459.2,348.4,459.2,348.3,463.6,347.6c0-0.1,6.7-1.2,6.7,4.1c0,0.7-1.4,2.1-0.7,2.2
		c3.2,0.5,3.2,0.5,3.2,0.5c3.7-0.1,4.3,1.2,1.1,3.1c0,0,0,0,0.1,2.8c0.1,1.9,2.7,2.6,4.1,3.5c0.7,0.5,2.3,1.1,2.3,2.1
		c0.2,1.9,0.2,1.9,0.2,1.9c-3.1,1.1-5,2.9-4.2,3.9c0,0,0,0,0.7,1.1c1,1.7,1,1.7,1,1.7c2.2,0.4,4.1,2.7,4.3,5.1c0,0,0,0,2.1,2.1
		c2.4,2.5-10.3,4.1-10.1,5.1c0.2,0.6,2.4,0,2.7,0.5c0.5,0.8-1,2.1-1.5,2.5c-3,2.8-3.7,3-3.7,3c-4.2,1.7-8.5,1.8-9.5,0.3
		s-1.8-3.4-0.8-3.8c0,0,0,0-0.2-0.3c-0.4-0.5-3.1,0-3.7,0.1c-2.7,0.1-2.7,0.1-2.7,0.1c-2.9-0.2-2.9-1.6,0-3.1c2.9-1.5,2.6-8-0.6-8.7
		c-3.2-0.7-10.5-3.4-8.9-4.9c0,0,0,0,1.2-0.8c1.1-0.7,4.1-2.1,4.3-3.6c0.1-0.6-0.8-0.9-1.1-1.4c-0.5-0.9-0.5-1.9-0.2-2.7
		c1.1-3,1.1-3,1.1-3c3.5-1.7,5-3.1,3.4-3.2c0,0,0,0-1.4-0.3c-0.5-0.1-0.9-0.3-0.2-0.6c3.4-1.3,3.4-1.3,3.4-1.3
		c4.1-0.9,5.4-4.2,3.1-7.3c0,0,0,0-3.7,0.5C469.8,346.6,463.6,347.6,463.6,347.6z"/>
	<path opacity="0.2" fill="#FFFFFF" enable-background="new    " d="M472.9,354.4c0,0,0,0-3.2-0.5c-0.7-0.1,0.7-1.5,0.7-2.2
		c0-4.1-3.9-4.3-5.8-4.2c0.5-0.1,0.7-0.1,0,0c-0.5,0-0.9,0.1-0.9,0.1c-4.3,0.7-4.4,0.8-0.2,0.1c-0.8,0.1-1.9,0.3-3.5,0.6
		c3.4,2.7,11.1,9.1,12.2,13c1.4,5,3.8,6.7,2.2,12.6c-1.7,5.9,4.4,6.3,4.4,6.3s-2.3,0.8-5.3,3.7c-1.9,1.9-0.2,5,1.3,7
		c0.3-0.3,0.7-0.6,1.1-0.9c0.5-0.4,2-1.7,1.5-2.5c-0.3-0.5-2.5,0.1-2.7-0.5c-0.3-1,12.4-2.6,10.1-5.1c-2.1-2.1-2.1-2.1-2.1-2.1
		c-0.2-2.5-2.2-4.7-4.3-5.1c0,0,0,0-1-1.7c-0.7-1.1-0.7-1.1-0.7-1.1c-0.8-1.1,1.1-2.8,4.2-3.9c0,0,0,0-0.2-1.9
		c-0.1-1-1.6-1.7-2.3-2.1c-1.3-0.9-4-1.6-4.1-3.5c-0.1-2.8-0.1-2.8-0.1-2.8C477.1,355.6,476.6,354.2,472.9,354.4z"/>
	<path opacity="0.2" fill="#FFFFFF" enable-background="new    " d="M474.6,390.8l1.7,1.9c0,0,6,1.9,7.5,10.7
		c1.3,7.8,4.7,71,4.3,91.8c0.2-0.2,0.4-0.7,0.6-1.6c0.1-0.6,0.2-1.2,0.3-1.9c1.9-17.2-1.1-90.8-1.1-90.8s-1.1-9.3-10.6-13.1
		C477.3,387.9,477.3,388.6,474.6,390.8z"/>
</g>
<g id="glace">
	<path fill="#FBD014" d="M548.9,398.9c0-16.5-12.9-29.8-28.7-29.8c-15.8,0-28.6,13.4-28.6,29.8l0,0l0,0v8.9v1.6v54.1
		c0,4.9,4.5,8.9,10.1,8.9h37.1c5.6,0,10.1-4,10.1-8.9v-54.1v-1.6L548.9,398.9L548.9,398.9L548.9,398.9z"/>
	<path fill="#FFE4A9" d="M520.2,472.3h-6.4v6.5v31.6c0,3.6,2.9,6.5,6.4,6.5s6.4-2.9,6.4-6.5v-31.6v-6.5H520.2z"/>
	<path opacity="0.2" fill="#FFFFFF" enable-background="new    " d="M548.9,463.4v-54.1v-1.6v-8.9l0,0c0-16.5-12.9-29.8-28.7-29.8
		c-0.3,0-0.7,0.1-0.9,0.1c1.5,3.9,10.1,5.4,13.5,6.5c4.1,1.3,9.5,7.9,9.9,15s-0.9,36.2,0,46.4c0.9,10.2,2.2,21.2-1.3,28.5
		c-2.7,5.5-7.2,6.6-12.9,6.9c-1.9,0.1-3.9,0.1-6.1,0.1h16.4C544.3,472.3,548.9,468.4,548.9,463.4z"/>
	<path opacity="0.3" fill="#FFFFFF" enable-background="new    " d="M525.2,472.3c0,0-1.9,20.5-1.3,25c0.6,4.6,1,18.5-1,20.9
		c-2.1,2.3,7.8,2.3,7.8,2.3l0.9-34.4l-1.9-13.9L525.2,472.3z"/>
</g>
<g id="pamplem">
	<path fill="#FBD014" d="M411.7,505.6c1.3-36.5,31.6-65.1,67.6-65.1s66.3,28.6,67.6,65.1s-28.9,67.2-67.6,67.2
		S410.3,542.1,411.7,505.6z"/>
	<path fill="#FFFFFF" d="M416.8,506.6c0-35.2,28-63.6,62.5-63.6c34.5,0,62.5,28.5,62.5,63.6c0,35.2-28,63.6-62.5,63.6
		C444.9,570.2,416.8,541.7,416.8,506.6z"/>
	<path fill="#E64C3B" d="M431.5,505.8c-11.7-33.7,14.8-61.1,47.6-48.9c32.8-12.1,59.3,15.2,47.6,48.9c11.7,33.7-14.8,61.1-47.6,48.9
		C446.4,566.8,419.8,539.5,431.5,505.8z"/>
	<path fill="#E64C3B" d="M445.5,539.5c-32.2-15.5-32.7-53.7-0.9-68.3c14.6-31.7,52.7-31.2,68.3,0.9c32.2,15.5,32.6,53.7,0.9,68.3
		C499.1,572.2,461,571.6,445.5,539.5z"/>
	<path fill="#E64C3B" d="M461,549.8c-35.6-2.1-50.7-37.1-27-62.7c1.4-34.9,36.8-49,63.5-25.2c35.6,2.1,50.7,37.1,27,62.7
		C523,559.4,487.6,573.6,461,549.8z"/>
	<path fill="#FFFFFF" d="M474.3,505.9c-2.9-4.1,0.8-7.9,5.5-5.3c4.8-2.5,8.5,1.3,5.5,5.3c2.6,4-1.1,7.7-5.5,5.2
		C475.4,513.8,471.7,510,474.3,505.9z"/>
	<path fill="#FFFFFF" d="M476,510c-4.9-1.1-4.8-6,0.3-7.7c1.5-5.4,6.7-5.6,7.6-0.3c4.9,1.2,4.4,5.9-0.6,7.6
		C481.8,514.8,477,515.2,476,510z"/>
	<path opacity="0.4" fill="#FFFFFF" enable-background="new    " d="M492.7,449c2.9-0.1,4.5,3.1,7.5,4.6
		c9.9,4.7,16.2,17.8,16.2,17.8s10.1,20.4,8.7,39.1c-2.1,27.6-14.9,37.1-19.8,41.3c-4.9,4.2-27.8,14.6-61.5,5.2l-2.5,1.2
		c10.9,4.3,29.6,10.9,29.6,10.9l27-1.1l27.1-19.4l15.6-28.4l-2.8-20.9l-3.6-22.6l-12.3-11.7l-23-15.3"/>
	<g>
		<g>
			<line fill="none" stroke="#FFFFFF" stroke-width="2" stroke-miterlimit="10" x1="498.1" y1="453.8" x2="460.6" y2="558"/>
		</g>
	</g>
	<g>
		<g>
			<line fill="none" stroke="#FFFFFF" stroke-width="2" stroke-miterlimit="10" x1="422.2" y1="529.4" x2="534.4" y2="483.2"/>
		</g>
	</g>
	<g>
		<g>
			<line fill="none" stroke="#FFFFFF" stroke-width="2" stroke-miterlimit="10" x1="531.2" y1="529.6" x2="425.8" y2="481.7"/>
		</g>
	</g>
	<g>
		<g>
			<line fill="none" stroke="#FFFFFF" stroke-width="2" stroke-miterlimit="10" x1="500.7" y1="559.9" x2="457.2" y2="451.7"/>
		</g>
	</g>
	<circle fill="#FFFFFF" cx="507.5" cy="505.9" r="2.3"/>
	<path fill="#FFFFFF" d="M508.5,477c0-0.9,0.7-1.7,1.7-1.7s1.7,0.7,1.7,1.7c0,0.9-0.7,1.7-1.7,1.7S508.5,477.9,508.5,477z"/>
	<path fill="#FFFFFF" d="M476,462.8c0,0.5,0.5,1,1,1c0.5,0,1-0.5,1-1s-0.5-1-1-1C476.5,461.8,476,462.2,476,462.8z"/>
	<circle fill="#FFFFFF" cx="457.2" cy="484.5" r="1.7"/>
	<path fill="#FFFFFF" d="M457.2,527.9c0-0.9,0.7-1.7,1.7-1.7s1.7,0.7,1.7,1.7s-0.7,1.7-1.7,1.7C458,529.6,457.2,528.9,457.2,527.9z"
		/>
	<path fill="#FFFFFF" d="M479.6,549.8c0-1.2,1-2.2,2.2-2.2s2.2,1,2.2,2.2s-1,2.2-2.2,2.2S479.6,551,479.6,549.8z"/>
	<path fill="#FFFFFF" d="M503.9,533.7c0-0.7,0.5-1.2,1.2-1.2s1.2,0.5,1.2,1.2c0,0.7-0.5,1.2-1.2,1.2
		C504.5,535,503.9,534.4,503.9,533.7z"/>
	<path fill="#FFFFFF" d="M438.2,505.3c0-0.7,0.6-1.3,1.3-1.3s1.3,0.6,1.3,1.3s-0.6,1.3-1.3,1.3C438.8,506.6,438.2,506,438.2,505.3z"
		/>
</g>
<g id="citron_vert">
	<path fill="#4EB96F" d="M430,532.3c-0.9,25.9-22.4,46.1-47.9,46.1c-25.5,0-46.9-20.2-47.9-46.1c-1-25.8,20.4-47.6,47.9-47.6
		S431,506.4,430,532.3z"/>
	<ellipse fill="#FFFFFF" cx="382.1" cy="532.2" rx="42.8" ry="43.5"/>
	<path fill="#4EB96F" d="M414.8,532.8c8.1,23.1-10.2,41.8-32.6,33.6c-22.4,8.3-40.7-10.5-32.6-33.6c-8.1-23.1,10.2-41.8,32.6-33.6
		C404.6,491,422.9,509.7,414.8,532.8z"/>
	<path fill="#4EB96F" d="M405.2,509.7c22,10.7,22.4,36.8,0.7,46.8c-10.1,21.7-36.2,21.4-46.7-0.7c-22-10.7-22.4-36.8-0.7-46.7
		C368.6,487.3,394.7,487.7,405.2,509.7z"/>
	<path fill="#FFFFFF" d="M385.7,532.7c2.3,3.1-0.6,6.1-4.3,4c-3.7,1.9-6.5-1-4.3-4c-2-3.1,0.9-5.9,4.3-4
		C384.9,526.7,387.7,529.6,385.7,532.7z"/>
	<path fill="#FFFFFF" d="M384.4,529.6c3.7,0.9,3.7,4.6-0.2,5.9c-1.1,4.1-5.1,4.3-5.9,0.3c-3.8-0.9-3.4-4.5,0.5-5.8
		C380,525.9,383.7,525.6,384.4,529.6z"/>
	<path opacity="0.4" fill="#FFFFFF" enable-background="new    " d="M388.4,494.1c8.3-0.1,19.2,12.7,19.2,12.7s5.3,14,4.3,26.8
		c-1.4,18.9-8.6,25.4-11.9,28.3c-3.3,2.9-19,10-42.1,3.6c-0.9-0.3-1.7-0.5-2.5-0.7l0.4,1.4c7.5,2.9,20.6,7.6,20.6,7.6l18.5-0.7
		l18.6-13.3l10.7-19.5l-1.9-14.3l-10.9-23.6l-17.6-9.1"/>
	<g>
		<line fill="none" x1="369.2" y1="568.4" x2="394.9" y2="497.1"/>
		
			<rect x="381" y="494.8" transform="matrix(-0.9408 -0.3389 0.3389 -0.9408 560.9435 1163.3672)" fill="#FFFFFF" width="2.1" height="75.8"/>
	</g>
	<g>
		<line fill="none" x1="417.2" y1="518.3" x2="346.6" y2="547.3"/>
		
			<rect x="380.9" y="494.6" transform="matrix(-0.3808 -0.9246 0.9246 -0.3808 34.7632 1088.8506)" fill="#FFFFFF" width="2.1" height="76.4"/>
	</g>
	<g>
		<line fill="none" x1="346.6" y1="516.5" x2="418.8" y2="549.3"/>
		
			<rect x="343.1" y="531.8" transform="matrix(-0.9102 -0.4141 0.4141 -0.9102 510.3466 1176.4418)" fill="#FFFFFF" width="79.2" height="2.1"/>
	</g>
	<g>
		<line fill="none" x1="367.5" y1="495.7" x2="397.3" y2="569.8"/>
		
			<rect x="342.5" y="531.7" transform="matrix(-0.373 -0.9278 0.9278 -0.373 30.6575 1086.3118)" fill="#FFFFFF" width="79.8" height="2.1"/>
	</g>
	<circle fill="#FFFFFF" cx="362.8" cy="532.7" r="1.6"/>
	<circle fill="#FFFFFF" cx="361.3" cy="552.9" r="1.5"/>
	<circle fill="#FFFFFF" cx="383.7" cy="562.3" r="0.7"/>
	<circle fill="#FFFFFF" cx="397.3" cy="547.3" r="1.2"/>
	<circle fill="#FFFFFF" cx="396.1" cy="517.6" r="1.1"/>
	<circle fill="#FFFFFF" cx="380.4" cy="502.6" r="1.5"/>
	<circle fill="#FFFFFF" cx="364.4" cy="513.6" r="0.8"/>
	<circle fill="#FFFFFF" cx="409.4" cy="533.1" r="0.9"/>
</g>
<g id="orange">
	<path fill="#F19B1F" d="M128.6,515.8c-1.3,34.6-30,61.7-64.1,61.7s-62.8-27-64.1-61.7c-1.3-34.6,27.4-63.7,64.1-63.7
		C101.2,452,129.8,481.2,128.6,515.8z"/>
	<path fill="#FFFFFF" d="M64.5,573.4c-32.5,0-58.8-25.9-58.8-57.8s26.3-57.7,58.8-57.7s58.8,25.8,58.8,57.7S96.9,573.4,64.5,573.4z"
		/>
	<path fill="#F19B1F" d="M63.7,559.8c-31.2,10.9-56.4-13.7-45.3-44c-11.1-30.3,14.1-54.9,45.3-44c31.2-10.9,56.4,13.7,45.3,44
		C120.1,546.1,94.9,570.7,63.7,559.8z"/>
	<path fill="#F19B1F" d="M94.8,546.9c-14.4,29.7-49.6,30.2-63.1,0.9c-29.3-13.5-28.8-48.7,0.9-63.1c14.4-29.7,49.6-30.2,63.1-0.9
		C125,497.3,124.5,532.5,94.8,546.9z"/>
	<path fill="#F19B1F" d="M104.6,532c-1.4,33-33.6,47.4-57.6,25.8c-32.3-0.8-45.8-33.3-24.2-58.3c1.4-33,33.6-47.4,57.6-25.8
		C112.7,474.5,126.2,507,104.6,532z"/>
	<path fill="#F19B1F" d="M81.6,556c-24,22.6-57.1,10.4-59.2-21.8C-0.1,511,13,478.3,45.9,475.6c24-22.6,57.1-10.4,59.2,21.8
		C127.6,520.6,114.5,553.3,81.6,556z"/>
	<path fill="#FFFFFF" d="M63.8,520.6c-4.2,3.1-8.1-0.8-5.4-5.7c-2.6-4.9,1.3-8.8,5.4-5.7c4.1-2.7,8,1.1,5.4,5.7
		C71.9,519.4,68.1,523.3,63.8,520.6z"/>
	<path fill="#FFFFFF" d="M68,518.8c-1.1,5-6.2,5-7.9-0.3c-5.6-1.5-5.7-6.9-0.3-7.9c1.2-5.1,6.1-4.5,7.9,0.6
		C73,512.8,73.4,517.8,68,518.8z"/>
	<path opacity="0.4" fill="#FFFFFF" enable-background="new    " d="M71.9,463.3c11.1-0.7,27,14.5,27,14.5s7.9,18.5,7.4,35.8
		c-0.7,25.6-10,34.8-14.3,38.9c-4.3,4.1-25,14.6-56.5,7.4c-9.9-2.3-11.1-2.1-8-0.9c3.5,1.5,12.4,6.7,20.2,9.1
		c7.1,2.3,13.4,1.9,13.4,1.9L86,568l24.2-19.1l13.3-26.8l-3.5-19.2l-16.8-29.5l-23.7-12.7"/>
	<g opacity="0.8">
		<path fill="#FFDE00" stroke="#FFFFFF" stroke-width="2" stroke-miterlimit="10" d="M119.9,515.2"/>
		<path fill="#FFDE00" stroke="#FFFFFF" stroke-width="2" stroke-miterlimit="10" d="M8.6,516.3"/>
	</g>
	<g opacity="0.8">
		<line fill="none" stroke="#FFFFFF" stroke-width="2" stroke-miterlimit="10" x1="63.5" y1="571.6" x2="63.9" y2="459.4"/>
		<line fill="none" stroke="#FFFFFF" stroke-width="2" stroke-miterlimit="10" x1="91.6" y1="564.2" x2="35.8" y2="466.9"/>
		<line fill="none" stroke="#FFFFFF" stroke-width="2" stroke-miterlimit="10" x1="112.2" y1="543.7" x2="15.2" y2="487.3"/>
		<line fill="none" stroke="#FFFFFF" stroke-width="2" stroke-miterlimit="10" x1="119.8" y1="515.7" x2="7.6" y2="515.4"/>
		<line fill="none" stroke="#FFFFFF" stroke-width="2" stroke-miterlimit="10" x1="112.3" y1="487.7" x2="15" y2="543.4"/>
		<line fill="none" stroke="#FFFFFF" stroke-width="2" stroke-miterlimit="10" x1="91.9" y1="467" x2="35.5" y2="564"/>
	</g>
	<g opacity="0.8">
		<path fill="#FFFFFF" stroke="#FFFFFF" stroke-width="2" stroke-miterlimit="10" d="M31.7,561.6"/>
		<path fill="#FFFFFF" stroke="#FFFFFF" stroke-width="2" stroke-miterlimit="10" d="M93.6,472.2"/>
	</g>
	<g opacity="0.8">
		<path fill="#FFFFFF" stroke="#FFFFFF" stroke-width="2" stroke-miterlimit="10" d="M15.3,539.7"/>
		<path fill="#FFFFFF" stroke="#FFFFFF" stroke-width="2" stroke-miterlimit="10" d="M112.1,492.3"/>
	</g>
	<g opacity="0.8">
		<path fill="#FFFFFF" stroke="#FFFFFF" stroke-width="2" stroke-miterlimit="10" d="M37,469.2"/>
		<path fill="#FFFFFF" stroke="#FFFFFF" stroke-width="2" stroke-miterlimit="10" d="M85.4,563.6"/>
	</g>
	<g opacity="0.8">
		<path fill="#FFFFFF" stroke="#FFFFFF" stroke-width="2" stroke-miterlimit="10" d="M16,490.9"/>
		<path fill="#FFFFFF" stroke="#FFFFFF" stroke-width="2" stroke-miterlimit="10" d="M111.3,541.2"/>
	</g>
	<circle fill="#FFFFFF" cx="71.8" cy="483.5" r="2.2"/>
	<path fill="#FFFFFF" d="M36.7,489.6c-1.1,0-2-0.9-2-2c0-1.1,0.9-2,2-2c1.1,0,2,0.9,2,2C38.6,488.7,37.8,489.6,36.7,489.6z"/>
	<circle fill="#FFFFFF" cx="23.9" cy="523.4" r="0.9"/>
	<path fill="#FFFFFF" d="M40.3,537.7c-0.9,0-1.6-0.7-1.6-1.6c0-0.9,0.7-1.6,1.6-1.6c0.9,0,1.6,0.7,1.6,1.6
		C41.9,537,41.2,537.7,40.3,537.7z"/>
	<path fill="#FFFFFF" d="M84.2,536.1c-0.9,0-1.5-0.7-1.5-1.5c0-0.9,0.7-1.6,1.5-1.6c0.9,0,1.5,0.7,1.5,1.6
		C85.7,535.4,85,536.1,84.2,536.1z"/>
	<circle fill="#FFFFFF" cx="89.6" cy="491.8" r="1.1"/>
	<circle fill="#FFFFFF" cx="57.5" cy="553.7" r="1.2"/>
</g>
<g id="citron">
	<path fill="#FBD014" d="M202.8,527.5c-1,26.2-22.6,46.6-48.5,46.7c-25.8,0-47.5-20.4-48.5-46.7c-1-26.2,20.7-48.2,48.5-48.2
		C182.1,479.3,203.8,501.3,202.8,527.5z"/>
	<ellipse fill="#FFFFFF" cx="154.3" cy="527.4" rx="43.3" ry="44.1"/>
	<path fill="#FBD014" d="M187.4,527.9c8.1,23.4-10.3,42.3-33,34c-22.7,8.4-41.2-10.6-33-34c-8.1-23.4,10.3-42.3,33-34
		C177.1,485.7,195.6,504.6,187.4,527.9z"/>
	<path fill="#FBD014" d="M177.8,504.6c22.2,10.8,22.6,37.2,0.7,47.3c-10.2,22-36.6,21.6-47.3-0.7c-22.3-10.8-22.6-37.2-0.7-47.3
		C140.6,482,167,482.3,177.8,504.6z"/>
	<path fill="#FFFFFF" d="M158,527.9c2.3,3.1-0.6,6.1-4.3,4.1c-3.7,1.9-6.6-1-4.3-4.1c-2-3.1,0.9-6,4.3-4.1
		C157.1,521.8,160,524.8,158,527.9z"/>
	<path fill="#FFFFFF" d="M156.7,524.8c3.7,0.9,3.7,4.7-0.2,5.9c-1.1,4.2-5.2,4.3-5.9,0.3c-3.8-0.9-3.4-4.5,0.5-5.9
		C152.2,521,155.9,520.7,156.7,524.8z"/>
	<path opacity="0.4" fill="#FFFFFF" enable-background="new    " d="M160.3,489.8c8.3-0.1,19.7,11.8,19.7,11.8s5.3,14.2,4.3,27.1
		c-1.4,19.1-8.7,25.8-12.1,28.6c-3.4,2.9-19.2,10.1-42.6,3.6c0,0-7.3-1.3-0.2,1.5c7.7,2.9,19,7,19,7l18.7-0.7l18.8-13.5l10.9-19.7
		L195,521l-11.1-23.8l-17.8-9.1"/>
	<g>
		<line fill="none" x1="141.3" y1="564" x2="167.3" y2="491.8"/>
		
			<rect x="153.2" y="489.5" transform="matrix(-0.9409 -0.3387 0.3387 -0.9409 120.721 1076.901)" fill="#FFFFFF" width="2.2" height="76.8"/>
	</g>
	<g>
		<line fill="none" x1="189.8" y1="513.3" x2="118.4" y2="542.7"/>
		
			<rect x="153" y="489.3" transform="matrix(-0.3809 -0.9246 0.9246 -0.3809 -275.3252 871.6223)" fill="#FFFFFF" width="2.2" height="77.3"/>
	</g>
	<g>
		<line fill="none" x1="118.4" y1="511.5" x2="191.4" y2="544.7"/>
		
			<rect x="114.8" y="527" transform="matrix(-0.9102 -0.4141 0.4141 -0.9102 77.1858 1073.0157)" fill="#FFFFFF" width="80.2" height="2.2"/>
	</g>
	<g>
		<line fill="none" x1="139.5" y1="490.5" x2="169.7" y2="565.5"/>
		
			<rect x="114.2" y="526.9" transform="matrix(-0.373 -0.9278 0.9278 -0.373 -277.6135 868.3163)" fill="#FFFFFF" width="80.8" height="2.2"/>
	</g>
	<circle fill="#FFFFFF" cx="134.8" cy="527.9" r="1.6"/>
	<circle fill="#FFFFFF" cx="133.2" cy="548.3" r="1.5"/>
	<circle fill="#FFFFFF" cx="155.9" cy="557.8" r="0.7"/>
	<circle fill="#FFFFFF" cx="169.7" cy="542.7" r="1.2"/>
	<circle fill="#FFFFFF" cx="168.5" cy="512.6" r="1.2"/>
	<circle fill="#FFFFFF" cx="152.6" cy="497.5" r="1.5"/>
	<ellipse fill="#FFFFFF" cx="155.9" cy="508.6" rx="0" ry="1"/>
	<circle fill="#FFFFFF" cx="136.4" cy="508.6" r="0.9"/>
	<ellipse fill="#FFFFFF" cx="143.5" cy="513.8" rx="0" ry="0.3"/>
	<circle fill="#FFFFFF" cx="181.9" cy="528.3" r="0.9"/>
</g>
<g id="banana">
	<path fill="#FBD014" d="M310.2,456.2l-4.8-7.1l-12.9-1c0,0,0.9,52.6-60.9,80.1c0,0-30.1,12.5-39.8,15.6
		c-9.7,3.2-29.6,17.6-29.6,17.6s-1.5,7.6,5,12.3c6.5,4.7,23.9,13.1,46.9,6.1s66.9-26,79.3-53.3c12.5-27.2,3.6-38.7,3.6-38.7
		s-3.3-3.7,7.7-27.7"/>
	<path fill="#FBD014" d="M305.5,449.4l4.7,6.8c0,0,0.2,16.8,17.2,28c17,11.1,15.8,28.8,15.8,28.8s2.5,31.4-28,61.2
		c-30.4,29.9-69.1,22.2-69.1,22.2l-16-3.7l-5.4-8.1c0,0-1.7-2.5,1.9-4.9c3.6-2.5,43.9-24.8,43.9-24.8s31.4-12.8,36.2-58.5
		c0,0,3.5-12.6,0.9-17.2c-2.6-4.7-9.8-17-9.8-17L305.5,449.4z"/>
	<path opacity="0.2" fill="#FFFFFF" enable-background="new    " d="M230,592.8l16,3.7c0,0,38.7,7.6,69.1-22.2
		c30.4-29.9,28-61.2,28-61.2s1.2-17.7-15.8-28.8c-6.9-4.5-11.1-10-13.5-14.8l-9.1-9.1c0,0,41.9,58.9-12.9,95.2
		c-19.2,12.7-44.1,23.4-65.9,31.3L230,592.8z"/>
	<path fill="#BB7645" d="M231.7,592.5c-1.2,0.8-2.5-0.1-4.5-3.1c-2-3-4.3-6.1-2.6-7.5c1.3-1.1,5.3-0.5,7.3,2.5
		C234,587.5,233.1,591.6,231.7,592.5z"/>
	<path opacity="0.2" fill="#FFFFFF" enable-background="new    " d="M218.5,547c23.5-3,58.1-16.8,64.5-39.4
		c6.5-22.6,11.3-31.9,13.4-51.9l-4-5.9c-0.4,8.9-5.3,53.9-60.9,78.5c0,0-30.1,12.5-39.8,15.6c-9.7,3.2-29.6,17.6-29.6,17.6
		s-0.5,2.3,0.2,5.1C174.7,560.8,201,549.3,218.5,547z"/>
	<path fill="#BB7645" d="M169.2,573.6c-2.4,1.3-4.1-1.1-6.1-4.7c-2-3.6-2.1-6.9,0.3-8.3c1.7-0.9,4.9,0.7,6.9,4.3
		C171.9,567.9,170.7,572.7,169.2,573.6z"/>
	<path fill="#BB7645" d="M291.9,455c2.1,2.3,11.5,5.8,11.5,5.8l6.9-4.3l-4.9-7.3c0,0-9.3-2.7-12.1-1.5c-1,0.4-2.1,2.7-2.3,3.9
		C290.8,452.5,291.2,454.2,291.9,455z"/>
</g>
<g id="kiwi">
	<g>
		<path fill="#A2CE62" d="M549.7,576.4c-7.9,0-16.2-1.7-24.1-4.7c-11.2-4.4-19.5-12.7-23.6-23.2c-4.1-10.9-3.3-23,2.3-34.1
			c8.9-16.8,28.2-27.6,49.3-27.6c4.6,0,9.1,0.5,13.3,1.6c8.8,2.1,16.2,8.3,20.9,17.6c6.9,13.7,7.3,31.5,0.9,46.5
			C579.7,573.2,560.4,576.4,549.7,576.4z"/>
		<g>
			<path fill="#B56828" d="M553.6,485.6v2l0,0c4.5,0,8.9,0.5,13.1,1.6l0,0l0,0c8.5,1.9,15.6,8,20.2,17c6.8,13.4,7.2,30.9,0.9,45.7
				c-8.9,20.4-27.8,23.4-38.2,23.4c-7.8,0-16-1.6-23.8-4.7c-10.9-4.3-19-12.3-23-22.7c-4.1-10.7-3.3-22.4,2.2-33.3
				c4.3-8.3,11.4-15.1,20.3-20c8.6-4.7,18.3-7.1,28.2-7.1L553.6,485.6 M553.6,485.6c-20.1,0-40.8,10.3-50.2,28.2
				c-11.7,23-2.3,49.3,21.8,58.7c7.9,3.1,16.3,4.9,24.5,4.9c16.8,0,32.5-7.3,40.1-24.6c11.3-26.7,1.1-60-22.6-65.5
				C562.7,486.1,558.2,485.6,553.6,485.6L553.6,485.6z"/>
		</g>
	</g>
	<g>
		<path opacity="0.3" fill="#FFFFFF" enable-background="new    " d="M535.8,577.5c4.7,0.1,9.5-0.7,14.2-2.2
			C538.6,576.2,526.6,577.4,535.8,577.5z"/>
		<path opacity="0.3" fill="#FFFFFF" enable-background="new    " d="M589.5,551.5c11.2-24.5,2.2-52.7-20-64.4
			c3.9,5.9,16.3,25.5,16.6,35.2c0.3,11.5,2.3,25-7.9,35.6c-7.1,7.4-17.3,14.1-28.1,17.5c8-0.7,15.6-1.2,15.6-1.2l6.1-1.4
			C579.2,567.6,585.4,560.4,589.5,551.5z"/>
	</g>
	<g opacity="0.9">
		<path fill="#FFFFFF" d="M557.5,541.5c-1.9,2-4.8,2.3-7.1,3.3c-2.5,1-4.9,2.7-7.4,2.4c-2.5-0.3-4.4-2.6-6.3-4.4
			c-1.9-1.8-4.4-3.4-4.9-5.9c-0.5-2.5,0.9-5.1,1.7-7.6c0.7-2.4,0.8-5.3,2.6-7.3c1.9-2,4.8-2.3,7.1-3.3c2.5-1,4.9-2.7,7.4-2.4
			c2.5,0.3,4.4,2.6,6.3,4.4c1.9,1.8,4.4,3.4,4.9,5.9c0.5,2.5-0.9,5.1-1.7,7.6C559.5,536.5,559.4,539.5,557.5,541.5z"/>
	</g>
	<g opacity="0.9">
		<g>
			<path fill="#FFFFFF" d="M543.7,545.9c-0.1,0-0.3,0-0.5,0c-1.7-0.2-3-1.6-4.5-3c-0.4-0.3-0.7-0.7-1.1-1.1s-0.8-0.7-1.2-1
				c-1.5-1.3-3-2.6-3.4-4.2c-0.3-1.4,0.3-3.1,0.9-4.8c0.3-0.7,0.5-1.4,0.7-2.1c0.2-0.7,0.4-1.5,0.5-2.3c0.4-1.8,0.7-3.5,1.8-4.6
				c1.1-1.2,2.7-1.7,4.4-2.2c0.7-0.2,1.5-0.5,2.2-0.7c0.7-0.3,1.4-0.6,2.1-0.9c1.5-0.7,2.9-1.4,4.3-1.4c0.1,0,0.3,0,0.5,0
				c1.7,0.2,3,1.6,4.5,3c0.4,0.3,0.7,0.7,1.1,1.1c0.4,0.3,0.8,0.7,1.2,1.1c1.5,1.3,3,2.6,3.4,4.2c0.3,1.4-0.3,3.1-0.9,4.8
				c-0.3,0.7-0.5,1.4-0.7,2.1c-0.2,0.7-0.4,1.5-0.5,2.3c-0.4,1.8-0.7,3.5-1.8,4.6s-2.7,1.7-4.4,2.2c-0.7,0.2-1.5,0.5-2.2,0.7
				c-0.7,0.3-1.4,0.6-2.1,0.9C546.4,545.2,544.9,545.9,543.7,545.9z"/>
			<path fill="#ECEFF0" d="M549.9,518.8L549.9,518.8c0.1,0,0.2,0,0.3,0c1.2,0.1,2.4,1.3,3.7,2.7c0.4,0.3,0.7,0.7,1.1,1.1
				c0.4,0.4,0.8,0.7,1.2,1.1c1.4,1.2,2.7,2.3,2.9,3.5c0.2,1-0.3,2.5-0.9,4.1c-0.3,0.7-0.5,1.5-0.8,2.2c-0.3,0.8-0.4,1.6-0.5,2.3
				c-0.3,1.6-0.7,3.1-1.5,4c-0.8,0.9-2.3,1.3-3.9,1.8c-0.7,0.2-1.5,0.5-2.3,0.8c-0.7,0.3-1.5,0.7-2.1,0.9c-1.4,0.7-2.7,1.3-3.7,1.3
				c-0.1,0-0.2,0-0.3,0c-1.2-0.1-2.4-1.3-3.7-2.7c-0.4-0.3-0.7-0.7-1.1-1.1s-0.8-0.7-1.2-1.1c-1.4-1.2-2.7-2.3-2.9-3.5
				c-0.2-1,0.3-2.5,0.9-4.1c0.3-0.7,0.5-1.5,0.8-2.2c0.3-0.8,0.4-1.6,0.5-2.3c0.3-1.6,0.7-3.1,1.5-4c0.8-0.9,2.3-1.3,3.9-1.8
				c0.7-0.2,1.5-0.5,2.3-0.8c0.7-0.3,1.5-0.6,2.1-0.9C547.6,519.4,548.9,518.8,549.9,518.8 M549.9,516.2c-2.3,0-4.5,1.5-6.8,2.4
				c-2.3,0.9-5.3,1.3-7.1,3.3c-1.9,2-1.9,5-2.6,7.3c-0.8,2.5-2.3,5.1-1.7,7.6c0.5,2.5,3,4.1,4.9,5.9c1.9,1.8,3.8,4.1,6.3,4.4
				c0.2,0,0.4,0.1,0.6,0.1c2.3,0,4.5-1.5,6.8-2.4c2.3-0.9,5.3-1.3,7.1-3.3c1.9-2,1.9-5,2.6-7.3c0.8-2.5,2.3-5.1,1.7-7.6
				c-0.5-2.5-3-4.1-4.9-5.9c-1.9-1.8-3.8-4.1-6.3-4.4C550.3,516.2,550.1,516.2,549.9,516.2L549.9,516.2z"/>
		</g>
	</g>
	<g opacity="0.6">
		<ellipse fill="#221F1F" cx="543.3" cy="510.4" rx="1.7" ry="3.3"/>
		
			<ellipse transform="matrix(0.3564 -0.9343 0.9343 0.3564 -121.9202 849.1692)" fill="#221F1F" cx="555.4" cy="513.1" rx="1.3" ry="0.7"/>
		
			<ellipse transform="matrix(0.7266 -0.687 0.687 0.7266 -201.1681 527.2798)" fill="#221F1F" cx="562" cy="516.4" rx="2.3" ry="1.4"/>
		
			<ellipse transform="matrix(0.7269 -0.6868 0.6868 0.7269 -202.382 532.692)" fill="#221F1F" cx="568.5" cy="520.8" rx="2.3" ry="1"/>
		<ellipse fill="#221F1F" cx="571" cy="526.6" rx="2.1" ry="0.6"/>
		<ellipse fill="#221F1F" cx="566.7" cy="530.3" rx="2.1" ry="0.7"/>
		
			<ellipse transform="matrix(0.1777 -0.9841 0.9841 0.1777 -57.8148 1000.1832)" fill="#221F1F" cx="569.6" cy="534.7" rx="0.8" ry="1.5"/>
		
			<ellipse transform="matrix(-0.2929 -0.9561 0.9561 -0.2929 189.2456 1238.8455)" fill="#221F1F" cx="552.7" cy="549.4" rx="1.7" ry="0.9"/>
		<ellipse fill="#221F1F" cx="544.9" cy="551.2" rx="0.7" ry="1.7"/>
		
			<ellipse transform="matrix(-0.5971 -0.8022 0.8022 -0.5971 432.0712 1251.5696)" fill="#221F1F" cx="530.4" cy="517.3" rx="2.9" ry="1.2"/>
		
			<ellipse transform="matrix(-0.9705 -0.241 0.241 -0.9705 904.4294 1169.9045)" fill="#221F1F" cx="523.8" cy="529.6" rx="2.9" ry="0.9"/>
		
			<ellipse transform="matrix(-0.1323 -0.9912 0.9912 -0.1323 60.1669 1129.2896)" fill="#221F1F" cx="524.4" cy="538.3" rx="0.9" ry="2.1"/>
		
			<ellipse transform="matrix(-0.439 -0.8985 0.8985 -0.439 276.0775 1257.9821)" fill="#221F1F" cx="530.8" cy="542.8" rx="0.5" ry="1.3"/>
		
			<ellipse transform="matrix(0.644 -0.765 0.765 0.644 -216.5963 623.9647)" fill="#221F1F" cx="562.2" cy="544.7" rx="0.8" ry="3.1"/>
		
			<ellipse transform="matrix(0.2271 -0.9739 0.9739 0.2271 -86.8063 971.7257)" fill="#221F1F" cx="568.8" cy="540.6" rx="0.5" ry="1.5"/>
		<ellipse fill="#221F1F" cx="548.5" cy="559.1" rx="1.1" ry="1.3"/>
		
			<ellipse transform="matrix(-0.6211 -0.7837 0.7837 -0.6211 417.0445 1303.8639)" fill="#221F1F" cx="523.7" cy="551.1" rx="0.3" ry="1.7"/>
		
			<ellipse transform="matrix(0.9098 -0.4151 0.4151 0.9098 -178.2763 282.0297)" fill="#221F1F" cx="559.7" cy="551.1" rx="0.5" ry="2.2"/>
		<ellipse fill="#221F1F" cx="556.1" cy="554.9" rx="0.5" ry="0.4"/>
		
			<ellipse transform="matrix(0.8517 -0.524 0.524 0.8517 -188.3038 355.4048)" fill="#221F1F" cx="533.8" cy="510.4" rx="0.3" ry="2.2"/>
		
			<ellipse transform="matrix(0.8656 -0.5008 0.5008 0.8656 -177.5417 355.4459)" fill="#221F1F" cx="573.3" cy="508.4" rx="4.6" ry="2.5"/>
		
			<ellipse transform="matrix(0.9379 -0.3469 0.3469 0.9379 -143.0954 231.635)" fill="#221F1F" cx="575.4" cy="515.5" rx="3.7" ry="1.4"/>
		
			<ellipse transform="matrix(0.9871 -0.1599 0.1599 0.9871 -76.7242 99.5875)" fill="#221F1F" cx="580.4" cy="526.5" rx="1.9" ry="0.9"/>
		
			<ellipse transform="matrix(0.9585 0.2852 -0.2852 0.9585 177.1344 -142.9345)" fill="#221F1F" cx="579.3" cy="536.7" rx="3.3" ry="2"/>
		
			<ellipse transform="matrix(0.9585 0.2851 -0.2851 0.9585 179.2876 -141.4249)" fill="#221F1F" cx="575.4" cy="545.1" rx="3.3" ry="1.4"/>
		
			<ellipse transform="matrix(0.8656 -0.5008 0.5008 0.8656 -201.6232 359.5535)" fill="#221F1F" cx="568.9" cy="555.3" rx="0.9" ry="2.9"/>
		
			<ellipse transform="matrix(0.9408 -0.339 0.339 0.9408 -157.3416 222.4537)" fill="#221F1F" cx="558.1" cy="561.6" rx="1.1" ry="2.1"/>
		
			<ellipse transform="matrix(0.681 -0.7323 0.7323 0.681 -238.1256 564.0575)" fill="#221F1F" cx="528.3" cy="555.3" rx="2.4" ry="1.3"/>
		
			<ellipse transform="matrix(-0.8656 0.5008 -0.5008 -0.8656 1248.2296 754.4)" fill="#221F1F" cx="522.9" cy="544.7" rx="2.3" ry="0.9"/>
		
			<ellipse transform="matrix(-0.8656 0.5008 -0.5008 -0.8656 1233.3309 752.2784)" fill="#221F1F" cx="515.7" cy="541.7" rx="2.7" ry="1.2"/>
		
			<ellipse transform="matrix(-0.9998 -2.141399e-02 2.141399e-02 -0.9998 1016.5588 1065.9509)" fill="#221F1F" cx="514" cy="527.5" rx="3.3" ry="2.1"/>
		
			<ellipse transform="matrix(0.4418 -0.8971 0.8971 0.4418 -141.2677 785.577)" fill="#221F1F" cx="560.6" cy="506.3" rx="2.8" ry="1.3"/>
		
			<ellipse transform="matrix(0.3954 -0.9185 0.9185 0.3954 -123.2393 812.6169)" fill="#221F1F" cx="555.6" cy="499.9" rx="4.1" ry="1.7"/>
		
			<ellipse transform="matrix(-0.1586 -0.9873 0.9873 -0.1586 139.8028 1119.2026)" fill="#221F1F" cx="546.8" cy="500" rx="2.7" ry="1.8"/>
		
			<ellipse transform="matrix(-0.2775 -0.9607 0.9607 -0.2775 200.0896 1157.983)" fill="#221F1F" cx="535.5" cy="503.8" rx="4.1" ry="1.3"/>
		
			<ellipse transform="matrix(0.7807 -0.6249 0.6249 0.7807 -205.4761 439.1139)" fill="#221F1F" cx="522.9" cy="512.3" rx="0.8" ry="3.1"/>
		
			<ellipse transform="matrix(0.9847 0.1743 -0.1743 0.9847 106.1902 -85.922)" fill="#221F1F" cx="542.3" cy="561.6" rx="1.1" ry="4.5"/>
		
			<ellipse transform="matrix(0.5522 -0.8337 0.8337 0.5522 -202.1258 665.2037)" fill="#221F1F" cx="518.2" cy="520.8" rx="0.5" ry="2.5"/>
		
			<ellipse transform="matrix(0.8149 0.5796 -0.5796 0.8149 419.4487 -207.8195)" fill="#221F1F" cx="535.1" cy="552.8" rx="0.6" ry="3.1"/>
		
			<ellipse transform="matrix(0.8801 0.4748 -0.4748 0.8801 305.3406 -208.9872)" fill="#221F1F" cx="566.4" cy="500" rx="0.5" ry="3.1"/>
	</g>
</g>
</svg>
